<svg xmlns="http://www.w3.org/2000/svg" xmlns:xlink="http://www.w3.org/1999/xlink" width="240" height="240" viewBox="0 0 240 240"><defs><clipPath id="a"><rect width="83.082" height="91.496" fill="#747474"/></clipPath><clipPath id="b"><rect width="77.694" height="86.106" fill="#747474"/></clipPath><clipPath id="c"><rect width="77.694" height="86.105" fill="#747474"/></clipPath><clipPath id="d"><rect width="31.184" height="31.188" fill="#747474"/></clipPath><clipPath id="e"><rect width="77.694" height="45.318" fill="#747474"/></clipPath></defs><g transform="translate(-711.839 -4618)"><circle cx="113" cy="113" r="113" transform="translate(718 4626)" fill="#fff"/><g transform="translate(790.839 4692)"><g transform="translate(0 0)"><g clip-path="url(#a)"><path d="M44.283,36.563A18.282,18.282,0,1,1,62.564,18.283,18.3,18.3,0,0,1,44.283,36.563m0-31.2A12.914,12.914,0,1,0,57.2,18.283,12.929,12.929,0,0,0,44.283,5.368" transform="translate(-2.741 0)" fill="#747474"/><path d="M81.529,96.3H1.556l-.365-2.255A89.786,89.786,0,0,1,.074,82.611C-.492,71.207,2.168,62.3,7.98,56.195,14.762,49.067,25.742,45.6,41.543,45.6c15.74,0,26.708,3.485,33.528,10.652,5.832,6.128,8.5,15.013,7.937,26.4a89.717,89.717,0,0,1-1.114,11.387ZM6.154,90.931H76.931a83.962,83.962,0,0,0,.715-8.494c.5-10.052-1.617-17.39-6.463-22.482C65.43,53.909,55.734,50.97,41.543,50.97c-14.253,0-23.96,2.92-29.674,8.926-4.827,5.072-6.93,12.431-6.432,22.495a84.8,84.8,0,0,0,.717,8.541" transform="translate(0 -4.803)" fill="#747474"/></g></g><g transform="translate(8.985 7.187)"><g clip-path="url(#b)"><g transform="translate(0 0)"><g clip-path="url(#c)"><g transform="translate(23.255 0)" opacity="0.26"><g transform="translate(0 0)"><g clip-path="url(#d)"><path d="M26,15.594A15.592,15.592,0,1,1,41.594,31.187,15.593,15.593,0,0,1,26,15.594" transform="translate(-26.003 0)" fill="#747474"/></g></g></g><g transform="translate(0 40.788)" opacity="0.26"><g clip-path="url(#e)"><path d="M1.156,90.919H76.539A87.4,87.4,0,0,0,77.622,79.83C78.878,54.5,63.691,45.6,38.848,45.6,13.728,45.6-1.182,54.5.074,79.83A87.24,87.24,0,0,0,1.156,90.919" transform="translate(0 -45.602)" fill="#747474"/></g></g></g></g></g></g></g><g transform="translate(711.839 4618)" fill="none"><path d="M120,0A120,120,0,1,1,0,120,120,120,0,0,1,120,0Z" stroke="none"/><path d="M 120 8 C 58.24299621582031 8 8 58.24299621582031 8 120 C 8 181.7570037841797 58.24299621582031 232 120 232 C 181.7570037841797 232 232 181.7570037841797 232 120 C 232 58.24299621582031 181.7570037841797 8 120 8 M 120 0 C 186.2741546630859 0 240 53.72584533691406 240 120 C 240 186.2741546630859 186.2741546630859 240 120 240 C 53.72584533691406 240 0 186.2741546630859 0 120 C 0 53.72584533691406 53.72584533691406 0 120 0 Z" stroke="none" fill="#747474"/></g></g></svg>