<!--?xml version="1.0" encoding="utf-8"?-->
<!-- Generator: Adobe Illustrator 22.1.0, SVG Export Plug-In . SVG Version: 6.00 Build 0)  -->
<svg version="1.1" id="_x32_" xmlns="http://www.w3.org/2000/svg" xmlns:xlink="http://www.w3.org/1999/xlink" x="0px" y="0px" viewBox="0 0 563.69 800" style="enable-background:new 0 0 563.69 800;" xml:space="preserve">
<style type="text/css">
	.st0{fill:#ccc;}
</style>
<g>
	<path class="st0" d="M288.211,6.359c50.396-14.174,76.915,9.154,92.867,28.006c28.837,34.081,71.989,124.339,82.477,196.141
		c10.488,71.802-56.474,107.299-81.483,119.401c-17.749,16.135-11.295,32.27-11.295,32.27s-8.068,0.807-13.715-7.261
		c-9.681,0.807-8.067,46.793,3.227,70.189c11.295,23.396,22.589,25.01,22.589,25.01s20.976-4.841,29.044,4.034
		c8.067,8.874,106.019,45.104,114.091,58.579c28.684,47.878,41.995,256.504,33.956,265.273H259.806h42.522H2.164
		c-3.402-15.308,4.138-214.676,33.956-265.273c7.975-13.532,106.139-49.704,114.207-58.579c8.067-8.874,29.043-4.034,29.043-4.034
		s11.295-1.614,22.589-25.01c11.295-23.396,12.908-69.381,3.227-70.189c-5.647,8.068-13.715,7.261-13.715,7.261
		s6.454-16.136-11.295-32.27c-25.01-12.102-91.971-47.599-81.483-119.401c10.488-71.802,74.222-176.681,93.585-192.01
		c19.363-15.328,40.338-26.623,62.928-17.749L288.211,6.359z"></path>
</g>
</svg>
